<?xml version="1.0" encoding="UTF-8"?>
<svg id="Layer_1" data-name="Layer 1" xmlns="http://www.w3.org/2000/svg" xmlns:xlink="http://www.w3.org/1999/xlink" viewBox="0 0 25 24">
  <defs>
    <style>
      .cls-1 {
        fill: none;
      }

      .cls-1, .cls-2 {
        stroke-width: 0px;
      }

      .cls-2 {
        fill: #fff;
      }

      .cls-3 {
        clip-path: url(#clippath);
      }
    </style>
    <clipPath id="clippath">
      <rect class="cls-1" x=".5" width="24" height="24"/>
    </clipPath>
  </defs>
  <g class="cls-3">
    <path class="cls-2" d="m24.5,23c0,.27-.11.52-.29.71s-.44.29-.71.29H1.5c-.27,0-.52-.11-.71-.29-.19-.19-.29-.44-.29-.71s.11-.52.29-.71c.19-.19.44-.29.71-.29h22c.27,0,.52.11.71.29s.29.44.29.71ZM.79,8.55c-.22-.4-.32-.85-.29-1.3.03-.45.18-.89.44-1.26.43-.63,1-1.14,1.67-1.5L10.11.58C10.85.2,11.67,0,12.5,0s1.65.2,2.39.58l7.5,3.91c.67.36,1.24.87,1.67,1.5.26.37.41.81.44,1.26.03.45-.07.91-.29,1.3-.23.44-.58.81-1.01,1.06-.43.25-.91.39-1.41.38h-.29v8h1c.27,0,.52.11.71.29s.29.44.29.71-.11.52-.29.71-.44.29-.71.29H2.5c-.27,0-.52-.11-.71-.29-.19-.19-.29-.44-.29-.71s.11-.52.29-.71c.19-.19.44-.29.71-.29h1v-8h-.29c-.5,0-.98-.13-1.41-.39-.43-.26-.77-.62-1.01-1.06Zm4.71,9.45h3v-8h-3v8Zm5-8v8h4v-8h-4Zm9,0h-3v8h3v-8ZM2.56,7.63c.06.12.16.21.27.28s.24.1.38.1h18.58c.13,0,.26-.03.38-.1.11-.07.21-.16.27-.28.05-.08.07-.16.06-.25,0-.09-.03-.17-.09-.25-.24-.36-.57-.66-.95-.86l-7.5-3.91c-.45-.23-.95-.36-1.46-.36s-1.01.12-1.46.36l-7.5,3.91c-.38.21-.71.5-.95.86-.05.07-.08.16-.09.25,0,.09.02.18.06.25Z"/>
  </g>
</svg>