<?xml version="1.0" encoding="UTF-8"?>
<svg id="Layer_1" data-name="Layer 1" xmlns="http://www.w3.org/2000/svg" xmlns:xlink="http://www.w3.org/1999/xlink" viewBox="0 0 25 24">
  <defs>
    <style>
      .cls-1 {
        fill: none;
      }

      .cls-1, .cls-2 {
        stroke-width: 0px;
      }

      .cls-2 {
        fill: #fff;
      }

      .cls-3 {
        clip-path: url(#clippath);
      }
    </style>
    <clipPath id="clippath">
      <rect class="cls-1" x=".5" width="24" height="24"/>
    </clipPath>
  </defs>
  <g class="cls-3">
    <path class="cls-2" d="m18.5,24H6.5c-1.33,0-2.6-.53-3.53-1.47-.94-.94-1.46-2.21-1.47-3.53V5c0-1.33.53-2.6,1.47-3.53C3.9.53,5.17,0,6.5,0h12c1.33,0,2.6.53,3.53,1.47.94.94,1.46,2.21,1.47,3.53v14c0,1.33-.53,2.6-1.47,3.53-.94.94-2.21,1.46-3.53,1.47ZM6.5,2c-.8,0-1.56.32-2.12.88-.56.56-.88,1.33-.88,2.12v14c0,.8.32,1.56.88,2.12.56.56,1.33.88,2.12.88h12c.8,0,1.56-.32,2.12-.88.56-.56.88-1.33.88-2.12V5c0-.8-.32-1.56-.88-2.12-.56-.56-1.33-.88-2.12-.88H6.5Zm10,8h-8c-.8,0-1.56-.32-2.12-.88-.56-.56-.88-1.33-.88-2.12s.32-1.56.88-2.12c.56-.56,1.33-.88,2.12-.88h8c.8,0,1.56.32,2.12.88.56.56.88,1.33.88,2.12s-.32,1.56-.88,2.12c-.56.56-1.33.88-2.12.88Zm-8-4c-.27,0-.52.11-.71.29-.19.19-.29.44-.29.71s.11.52.29.71c.19.19.44.29.71.29h8c.27,0,.52-.11.71-.29.19-.19.29-.44.29-.71s-.11-.52-.29-.71c-.19-.19-.44-.29-.71-.29h-8Zm-2,7c-.2,0-.39.06-.56.17-.16.11-.29.27-.37.45-.08.18-.1.38-.06.58.04.19.13.37.27.51.14.14.32.24.51.27.19.04.4.02.58-.06.18-.08.34-.2.45-.37.11-.16.17-.36.17-.56,0-.27-.11-.52-.29-.71-.19-.19-.44-.29-.71-.29Zm4,0c-.2,0-.39.06-.56.17-.16.11-.29.27-.37.45-.08.18-.1.38-.06.58.04.19.13.37.27.51.14.14.32.24.51.27s.4.02.58-.06c.18-.08.34-.2.45-.37.11-.16.17-.36.17-.56,0-.27-.11-.52-.29-.71s-.44-.29-.71-.29Zm4,0c-.2,0-.39.06-.56.17-.16.11-.29.27-.37.45-.08.18-.1.38-.06.58s.13.37.27.51c.14.14.32.24.51.27s.4.02.58-.06c.18-.08.34-.2.45-.37.11-.16.17-.36.17-.56,0-.27-.11-.52-.29-.71s-.44-.29-.71-.29Zm-8,4c-.2,0-.39.06-.56.17-.16.11-.29.27-.37.45-.08.18-.1.38-.06.58.04.19.13.37.27.51.14.14.32.24.51.27.19.04.4.02.58-.06.18-.08.34-.2.45-.37.11-.16.17-.36.17-.56,0-.27-.11-.52-.29-.71-.19-.19-.44-.29-.71-.29Zm4,0c-.2,0-.39.06-.56.17-.16.11-.29.27-.37.45-.08.18-.1.38-.06.58.04.19.13.37.27.51.14.14.32.24.51.27.19.04.4.02.58-.06.18-.08.34-.2.45-.37.11-.16.17-.36.17-.56,0-.27-.11-.52-.29-.71s-.44-.29-.71-.29Zm8-4c-.2,0-.39.06-.56.17-.16.11-.29.27-.37.45-.08.18-.1.38-.06.58.04.19.13.37.27.51.14.14.32.24.51.27.19.04.4.02.58-.06.18-.08.34-.2.45-.37.11-.16.17-.36.17-.56,0-.27-.11-.52-.29-.71s-.44-.29-.71-.29Zm1,5c0-.27-.11-.52-.29-.71s-.44-.29-.71-.29h-4c-.27,0-.52.11-.71.29s-.29.44-.29.71.11.52.29.71.44.29.71.29h4c.27,0,.52-.11.71-.29s.29-.44.29-.71Z"/>
  </g>
</svg>