<?xml version="1.0" encoding="UTF-8"?>
<svg id="Layer_1" data-name="Layer 1" xmlns="http://www.w3.org/2000/svg" xmlns:xlink="http://www.w3.org/1999/xlink" viewBox="0 0 25 24">
  <defs>
    <style>
      .cls-1 {
        fill: none;
      }

      .cls-1, .cls-2 {
        stroke-width: 0px;
      }

      .cls-2 {
        fill: #fff;
      }

      .cls-3 {
        clip-path: url(#clippath);
      }
    </style>
    <clipPath id="clippath">
      <rect class="cls-1" x=".5" width="24" height="24"/>
    </clipPath>
  </defs>
  <g class="cls-3">
    <g>
      <path class="cls-2" d="m19.5,2h-1v-1c0-.27-.11-.52-.29-.71-.19-.19-.44-.29-.71-.29s-.52.11-.71.29c-.19.19-.29.44-.29.71v1h-8v-1c0-.27-.11-.52-.29-.71-.19-.19-.44-.29-.71-.29s-.52.11-.71.29c-.19.19-.29.44-.29.71v1h-1c-1.33,0-2.6.53-3.53,1.47-.94.94-1.46,2.21-1.47,3.53v12c0,1.33.53,2.6,1.47,3.53.94.94,2.21,1.46,3.53,1.47h14c1.33,0,2.6-.53,3.53-1.47.94-.94,1.46-2.21,1.47-3.53V7c0-1.33-.53-2.6-1.47-3.53-.94-.94-2.21-1.46-3.53-1.47ZM2.5,7c0-.8.32-1.56.88-2.12.56-.56,1.33-.88,2.12-.88h14c.8,0,1.56.32,2.12.88.56.56.88,1.33.88,2.12v1H2.5v-1Zm17,15H5.5c-.8,0-1.56-.32-2.12-.88-.56-.56-.88-1.33-.88-2.12v-9h20v9c0,.8-.32,1.56-.88,2.12-.56.56-1.33.88-2.12.88Z"/>
      <path class="cls-2" d="m12.5,16.5c.83,0,1.5-.67,1.5-1.5s-.67-1.5-1.5-1.5-1.5.67-1.5,1.5.67,1.5,1.5,1.5Z"/>
      <path class="cls-2" d="m7.5,16.5c.83,0,1.5-.67,1.5-1.5s-.67-1.5-1.5-1.5-1.5.67-1.5,1.5.67,1.5,1.5,1.5Z"/>
      <path class="cls-2" d="m17.5,16.5c.83,0,1.5-.67,1.5-1.5s-.67-1.5-1.5-1.5-1.5.67-1.5,1.5.67,1.5,1.5,1.5Z"/>
    </g>
  </g>
</svg>