<?xml version="1.0" encoding="UTF-8"?>
<svg id="Layer_1" data-name="Layer 1" xmlns="http://www.w3.org/2000/svg" xmlns:xlink="http://www.w3.org/1999/xlink" viewBox="0 0 25 24">
  <defs>
    <style>
      .cls-1 {
        fill: none;
      }

      .cls-1, .cls-2 {
        stroke-width: 0px;
      }

      .cls-2 {
        fill: #fff;
      }

      .cls-3 {
        clip-path: url(#clippath);
      }
    </style>
    <clipPath id="clippath">
      <rect class="cls-1" x=".5" width="24" height="24"/>
    </clipPath>
  </defs>
  <g class="cls-3">
    <g>
      <path class="cls-2" d="m19.21,12h-4.71c-.53,0-1.04-.21-1.41-.59s-.59-.88-.59-1.41v-4.73c0-.46-.1-.91-.31-1.33s-.5-.77-.86-1.06c-.34-.27-.75-.46-1.18-.56-.43-.09-.88-.09-1.3.02-2.42.6-4.57,2.01-6.08,4-1.51,1.99-2.3,4.43-2.24,6.93.06,2.5.98,4.9,2.59,6.8,1.61,1.91,3.83,3.21,6.28,3.68,2.76.53,5.61-.02,7.98-1.53,2.37-1.51,4.07-3.86,4.75-6.59.11-.43.12-.87.02-1.3-.09-.43-.28-.83-.56-1.18-.28-.36-.65-.66-1.06-.86-.41-.2-.87-.31-1.33-.31Zm.99,3.17c-.38,1.54-1.17,2.95-2.28,4.09-1.11,1.14-2.5,1.96-4.03,2.39-1.53.43-3.15.44-4.68.03-1.54-.4-2.94-1.21-4.06-2.33-1.12-1.12-1.93-2.53-2.33-4.06-.4-1.54-.39-3.15.03-4.68.43-1.53,1.25-2.92,2.39-4.03,1.14-1.11,2.55-1.89,4.09-2.27.13-.03.27-.03.4,0,.13.03.26.09.36.18.12.09.22.22.29.36.07.14.11.29.11.45v4.72c0,1.06.42,2.08,1.17,2.83.75.75,1.77,1.17,2.83,1.17h4.71c.16,0,.31.04.45.11.14.07.27.17.36.29.08.11.14.23.17.36.03.13.03.27,0,.4h0Z"/>
      <path class="cls-2" d="m24.15,7.45c-.46-1.69-1.35-3.24-2.59-4.48-1.24-1.24-2.78-2.14-4.47-2.6-.18-.05-.36-.07-.54-.07-.26,0-.53.05-.77.15-.24.1-.47.25-.66.43-.19.19-.34.41-.44.65-.1.24-.15.51-.15.77v4.7c0,.8.32,1.56.88,2.12.56.56,1.33.88,2.12.88h4.72c.31,0,.61-.08.89-.22.28-.14.51-.34.7-.59.19-.25.31-.53.37-.84.06-.3.04-.62-.04-.91Zm-2.5.55h-4.14c-.27,0-.52-.11-.71-.29-.19-.19-.29-.44-.29-.71V2.31s0,0,.02,0h.03c1.36.37,2.6,1.09,3.6,2.09,1,1,1.71,2.24,2.08,3.61h-.58Z"/>
    </g>
  </g>
</svg>