<?xml version="1.0" encoding="UTF-8"?>
<svg id="Layer_1" data-name="Layer 1" xmlns="http://www.w3.org/2000/svg" viewBox="0 0 25 24">
  <defs>
    <style>
      .cls-1 {
        fill: #fff;
        stroke-width: 0px;
      }
    </style>
  </defs>
  <path class="cls-1" d="m8.5,11h-4c-.8,0-1.56-.32-2.12-.88-.56-.56-.88-1.33-.88-2.12v-4c0-.8.32-1.56.88-2.12.56-.56,1.33-.88,2.12-.88h4c.8,0,1.56.32,2.12.88.56.56.88,1.33.88,2.12v4c0,.8-.32,1.56-.88,2.12-.56.56-1.33.88-2.12.88ZM4.5,3c-.27,0-.52.11-.71.29-.19.19-.29.44-.29.71v4c0,.27.11.52.29.71.19.19.44.29.71.29h4c.27,0,.52-.11.71-.29.19-.19.29-.44.29-.71v-4c0-.27-.11-.52-.29-.71-.19-.19-.44-.29-.71-.29h-4Zm16,8h-4c-.8,0-1.56-.32-2.12-.88-.56-.56-.88-1.33-.88-2.12v-4c0-.8.32-1.56.88-2.12.56-.56,1.33-.88,2.12-.88h4c.8,0,1.56.32,2.12.88.56.56.88,1.33.88,2.12v4c0,.8-.32,1.56-.88,2.12-.56.56-1.33.88-2.12.88Zm-4-8c-.27,0-.52.11-.71.29-.19.19-.29.44-.29.71v4c0,.27.11.52.29.71.19.19.44.29.71.29h4c.27,0,.52-.11.71-.29.19-.19.29-.44.29-.71v-4c0-.27-.11-.52-.29-.71-.19-.19-.44-.29-.71-.29h-4Zm-8,20h-4c-.8,0-1.56-.32-2.12-.88-.56-.56-.88-1.33-.88-2.12v-4c0-.8.32-1.56.88-2.12.56-.56,1.33-.88,2.12-.88h4c.8,0,1.56.32,2.12.88s.88,1.33.88,2.12v4c0,.8-.32,1.56-.88,2.12-.56.56-1.33.88-2.12.88Zm-4-8c-.27,0-.52.11-.71.29-.19.19-.29.44-.29.71v4c0,.27.11.52.29.71.19.19.44.29.71.29h4c.27,0,.52-.11.71-.29.19-.19.29-.44.29-.71v-4c0-.27-.11-.52-.29-.71-.19-.19-.44-.29-.71-.29h-4Zm16,8h-4c-.8,0-1.56-.32-2.12-.88-.56-.56-.88-1.33-.88-2.12v-4c0-.8.32-1.56.88-2.12s1.33-.88,2.12-.88h4c.8,0,1.56.32,2.12.88.56.56.88,1.33.88,2.12v4c0,.8-.32,1.56-.88,2.12-.56.56-1.33.88-2.12.88Zm-4-8c-.27,0-.52.11-.71.29s-.29.44-.29.71v4c0,.27.11.52.29.71s.44.29.71.29h4c.27,0,.52-.11.71-.29s.29-.44.29-.71v-4c0-.27-.11-.52-.29-.71s-.44-.29-.71-.29h-4Z"/>
</svg>