<?xml version="1.0" encoding="UTF-8"?>
<svg id="Layer_1" data-name="Layer 1" xmlns="http://www.w3.org/2000/svg" xmlns:xlink="http://www.w3.org/1999/xlink" viewBox="0 0 25 24">
  <defs>
    <style>
      .cls-1 {
        fill: none;
      }

      .cls-1, .cls-2 {
        stroke-width: 0px;
      }

      .cls-2 {
        fill: #fff;
      }

      .cls-3 {
        clip-path: url(#clippath);
      }
    </style>
    <clipPath id="clippath">
      <rect class="cls-1" x=".5" width="24" height="24"/>
    </clipPath>
  </defs>
  <g class="cls-3">
    <g>
      <path class="cls-2" d="m23.5,22H5.5c-.8,0-1.56-.32-2.12-.88-.56-.56-.88-1.33-.88-2.12V1c0-.27-.11-.52-.29-.71-.19-.19-.44-.29-.71-.29s-.52.11-.71.29c-.19.19-.29.44-.29.71v18c0,1.33.53,2.6,1.47,3.53.94.94,2.21,1.46,3.53,1.47h18c.27,0,.52-.11.71-.29s.29-.44.29-.71-.11-.52-.29-.71-.44-.29-.71-.29Z"/>
      <path class="cls-2" d="m6.5,20c.27,0,.52-.11.71-.29.19-.19.29-.44.29-.71v-7c0-.27-.11-.52-.29-.71-.19-.19-.44-.29-.71-.29s-.52.11-.71.29c-.19.19-.29.44-.29.71v7c0,.27.11.52.29.71.19.19.44.29.71.29Z"/>
      <path class="cls-2" d="m10.5,10v9c0,.27.11.52.29.71s.44.29.71.29.52-.11.71-.29.29-.44.29-.71v-9c0-.27-.11-.52-.29-.71-.19-.19-.44-.29-.71-.29s-.52.11-.71.29c-.19.19-.29.44-.29.71Z"/>
      <path class="cls-2" d="m15.5,13v6c0,.27.11.52.29.71s.44.29.71.29.52-.11.71-.29.29-.44.29-.71v-6c0-.27-.11-.52-.29-.71s-.44-.29-.71-.29-.52.11-.71.29-.29.44-.29.71Z"/>
      <path class="cls-2" d="m20.5,9v10c0,.27.11.52.29.71s.44.29.71.29.52-.11.71-.29.29-.44.29-.71v-10c0-.27-.11-.52-.29-.71-.19-.19-.44-.29-.71-.29s-.52.11-.71.29c-.19.19-.29.44-.29.71Z"/>
      <path class="cls-2" d="m6.5,9c.27,0,.52-.11.71-.29l3.59-3.59c.19-.18.44-.28.71-.28s.52.1.71.28l2.17,2.17c.56.56,1.33.88,2.12.88s1.56-.32,2.12-.88l5.59-5.59c.18-.19.28-.44.28-.7,0-.26-.11-.51-.29-.7s-.44-.29-.7-.29c-.26,0-.51.1-.7.28l-5.59,5.59c-.19.19-.44.29-.71.29s-.52-.11-.71-.29l-2.17-2.17c-.56-.56-1.33-.88-2.12-.88s-1.56.32-2.12.88l-3.59,3.59c-.14.14-.24.32-.27.51-.04.19-.02.39.06.58.08.18.2.34.37.45.16.11.36.17.56.17Z"/>
    </g>
  </g>
</svg>