<?xml version="1.0" encoding="UTF-8"?>
<svg id="Layer_1" data-name="Layer 1" xmlns="http://www.w3.org/2000/svg" xmlns:xlink="http://www.w3.org/1999/xlink" viewBox="0 0 25 24">
  <defs>
    <style>
      .cls-1 {
        fill: none;
      }

      .cls-1, .cls-2 {
        stroke-width: 0px;
      }

      .cls-2 {
        fill: #fff;
      }

      .cls-3 {
        clip-path: url(#clippath);
      }
    </style>
    <clipPath id="clippath">
      <rect class="cls-1" x=".5" width="24" height="24"/>
    </clipPath>
  </defs>
  <g class="cls-3">
    <path class="cls-2" d="m19.5,4h-4v-1c0-.8-.32-1.56-.88-2.12-.56-.56-1.33-.88-2.12-.88s-1.56.32-2.12.88c-.56.56-.88,1.33-.88,2.12v1h-4c-1.33,0-2.6.53-3.53,1.47-.94.94-1.46,2.21-1.47,3.53v10c0,1.33.53,2.6,1.47,3.53.94.94,2.21,1.46,3.53,1.47h14c1.33,0,2.6-.53,3.53-1.47.94-.94,1.46-2.21,1.47-3.53v-10c0-1.33-.53-2.6-1.47-3.53-.94-.94-2.21-1.46-3.53-1.47Zm-8-1c0-.27.11-.52.29-.71.19-.19.44-.29.71-.29s.52.11.71.29c.19.19.29.44.29.71v2c0,.27-.11.52-.29.71-.19.19-.44.29-.71.29s-.52-.11-.71-.29c-.19-.19-.29-.44-.29-.71v-2Zm11,16c0,.8-.32,1.56-.88,2.12-.56.56-1.33.88-2.12.88H5.5c-.8,0-1.56-.32-2.12-.88-.56-.56-.88-1.33-.88-2.12v-10c0-.8.32-1.56.88-2.12.56-.56,1.33-.88,2.12-.88h4.18c.2.58.58,1.09,1.09,1.45.5.36,1.11.55,1.73.55s1.22-.19,1.73-.55c.5-.36.89-.87,1.09-1.45h4.18c.8,0,1.56.32,2.12.88.56.56.88,1.33.88,2.12v10Zm-12-9h-5c-.27,0-.52.11-.71.29-.19.19-.29.44-.29.71v8c0,.27.11.52.29.71.19.19.44.29.71.29h5c.27,0,.52-.11.71-.29s.29-.44.29-.71v-8c0-.27-.11-.52-.29-.71s-.44-.29-.71-.29Zm-1,8h-3v-6h3v6Zm11-3c0,.27-.11.52-.29.71s-.44.29-.71.29h-5c-.27,0-.52-.11-.71-.29s-.29-.44-.29-.71.11-.52.29-.71.44-.29.71-.29h5c.27,0,.52.11.71.29s.29.44.29.71Zm0-4c0,.27-.11.52-.29.71s-.44.29-.71.29h-5c-.27,0-.52-.11-.71-.29s-.29-.44-.29-.71.11-.52.29-.71.44-.29.71-.29h5c.27,0,.52.11.71.29s.29.44.29.71Zm-2,8c0,.27-.11.52-.29.71s-.44.29-.71.29h-3c-.27,0-.52-.11-.71-.29s-.29-.44-.29-.71.11-.52.29-.71.44-.29.71-.29h3c.27,0,.52.11.71.29s.29.44.29.71Z"/>
  </g>
</svg>