<?xml version="1.0" encoding="UTF-8"?>
<svg id="Layer_1" data-name="Layer 1" xmlns="http://www.w3.org/2000/svg" xmlns:xlink="http://www.w3.org/1999/xlink" viewBox="0 0 25 24">
  <defs>
    <style>
      .cls-1 {
        fill: none;
      }

      .cls-1, .cls-2 {
        stroke-width: 0px;
      }

      .cls-2 {
        fill: #fff;
      }

      .cls-3 {
        clip-path: url(#clippath);
      }
    </style>
    <clipPath id="clippath">
      <rect class="cls-1" x=".5" width="24" height="24"/>
    </clipPath>
  </defs>
  <g class="cls-3">
    <g>
      <path class="cls-2" d="m21.5,12h-3c-.53,0-1.04.21-1.41.59-.38.38-.59.88-.59,1.41s-.21,1.04-.59,1.41c-.38.38-.88.59-1.41.59h-4c-.53,0-1.04-.21-1.41-.59-.38-.38-.59-.88-.59-1.41s-.21-1.04-.59-1.41c-.38-.38-.88-.59-1.41-.59h-3c-.8,0-1.56.32-2.12.88-.56.56-.88,1.33-.88,2.12v4c0,1.33.53,2.6,1.47,3.53.94.94,2.21,1.46,3.53,1.47h14c1.33,0,2.6-.53,3.53-1.47.94-.94,1.46-2.21,1.47-3.53v-4c0-.8-.32-1.56-.88-2.12-.56-.56-1.33-.88-2.12-.88Zm1,7c0,.8-.32,1.56-.88,2.12-.56.56-1.33.88-2.12.88H5.5c-.8,0-1.56-.32-2.12-.88-.56-.56-.88-1.33-.88-2.12v-4c0-.27.11-.52.29-.71.19-.19.44-.29.71-.29h3c0,1.06.42,2.08,1.17,2.83.75.75,1.77,1.17,2.83,1.17h4c1.06,0,2.08-.42,2.83-1.17.75-.75,1.17-1.77,1.17-2.83h3c.27,0,.52.11.71.29s.29.44.29.71v4Z"/>
      <path class="cls-2" d="m3.5,10h18c.27,0,.52-.11.71-.29.19-.19.29-.44.29-.71s-.11-.52-.29-.71c-.19-.19-.44-.29-.71-.29H3.5c-.27,0-.52.11-.71.29-.19.19-.29.44-.29.71s.11.52.29.71c.19.19.44.29.71.29Z"/>
      <path class="cls-2" d="m3.5,6h18c.27,0,.52-.11.71-.29.19-.19.29-.44.29-.71s-.11-.52-.29-.71c-.19-.19-.44-.29-.71-.29H3.5c-.27,0-.52.11-.71.29-.19.19-.29.44-.29.71s.11.52.29.71c.19.19.44.29.71.29Z"/>
    </g>
  </g>
</svg>