<?xml version="1.0" encoding="UTF-8"?>
<svg id="OBJECTS" xmlns="http://www.w3.org/2000/svg" xmlns:xlink="http://www.w3.org/1999/xlink" viewBox="0 0 500 500">
  <defs>
    <style>
      .cls-1 {
        fill: url(#linear-gradient);
      }

      .cls-1, .cls-2, .cls-3, .cls-4, .cls-5 {
        stroke-width: 0px;
      }

      .cls-2 {
        fill: url(#linear-gradient-5);
      }

      .cls-3 {
        fill: url(#linear-gradient-2);
      }

      .cls-4 {
        fill: url(#linear-gradient-3);
      }

      .cls-5 {
        fill: url(#linear-gradient-4);
      }
    </style>
    <linearGradient id="linear-gradient" x1="284.61" y1="191.22" x2="376.15" y2="191.22" gradientUnits="userSpaceOnUse">
      <stop offset="0" stop-color="#36d9ff"/>
      <stop offset="1" stop-color="#00e5c2"/>
    </linearGradient>
    <linearGradient id="linear-gradient-2" x1="113.67" y1="244.83" x2="170.63" y2="244.83" gradientTransform="translate(354.27 560.31) rotate(-180)" xlink:href="#linear-gradient"/>
    <linearGradient id="linear-gradient-3" x1="368.88" y1="223.95" x2="143.74" y2="307.28" gradientUnits="userSpaceOnUse">
      <stop offset="0" stop-color="#36d9ff"/>
      <stop offset="1" stop-color="#5900db"/>
    </linearGradient>
    <linearGradient id="linear-gradient-4" x1="257.4" y1="231.31" x2="257.4" y2="338.32" xlink:href="#linear-gradient"/>
    <linearGradient id="linear-gradient-5" x1="386.55" y1="253.26" x2="247.55" y2="386.26" gradientUnits="userSpaceOnUse">
      <stop offset="0" stop-color="#36d9ff"/>
      <stop offset="1" stop-color="#4a00c5"/>
    </linearGradient>
  </defs>
  <path class="cls-1" d="m364.15,236.05c-4.82,0-9.36-2.92-11.2-7.68-4.78-12.38-11.88-23.56-21.09-33.22-10.89-11.42-24.46-20.21-39.25-25.44-6.25-2.21-9.52-9.07-7.31-15.31,2.21-6.25,9.07-9.52,15.32-7.31,18.32,6.48,35.13,17.38,48.61,31.5,11.4,11.96,20.19,25.8,26.11,41.14,2.39,6.18-.69,13.13-6.87,15.52-1.42.55-2.88.81-4.32.81Z"/>
  <path class="cls-3" d="m191.11,287.58c3,0,5.82,1.82,6.97,4.78,2.98,7.71,7.39,14.66,13.12,20.67,6.78,7.1,15.22,12.58,24.42,15.83,3.89,1.38,5.92,5.64,4.55,9.53s-5.64,5.93-9.53,4.55c-11.4-4.03-21.86-10.81-30.25-19.6-7.1-7.44-12.56-16.05-16.25-25.6-1.49-3.85.43-8.17,4.28-9.66.88-.34,1.79-.5,2.69-.5Z"/>
  <path class="cls-4" d="m371.67,252.61c-6.63,0-12,5.37-12,12,0,55.48-45.14,100.63-100.63,100.63-51.42,0-93.96-38.78-99.91-88.63h40.36c6.18,0,11.19-5.01,11.19-11.19h0c0-26.48,20.95-48.66,47.43-49.17,27.09-.51,49.3,21.38,49.3,48.35,0,22.78-15.83,41.92-37.07,47.02v24.46c35.97-5.66,63.23-37.91,60.94-75.93-2.23-37.01-32.66-66.6-69.72-67.86-36.92-1.26-68.02,25.31-73.88,60.32h-28.54c5.95-49.85,48.48-88.63,99.91-88.63,6.63,0,12-5.37,12-12s-5.37-12-12-12c-68.72,0-124.63,55.91-124.63,124.63s55.91,124.63,124.63,124.63,124.63-55.91,124.63-124.63c0-6.63-5.37-12-12-12Z"/>
  <path class="cls-5" d="m270.93,336h-10.62c-7.39,0-13.38-5.99-13.38-13.38v-21.08c-15.16-5.26-25.84-20.2-24.6-37.39,1.3-18.04,15.93-32.64,33.98-33.9,14.91-1.04,28.11,6.88,34.76,18.9,4.4,7.95-1.34,17.7-10.43,17.7h0c-4.33,0-8.47-2.22-10.54-6.03-2.22-4.1-6.65-6.85-11.68-6.66-6.53.25-11.93,5.66-12.19,12.19-.28,7.23,5.52,13.2,12.69,13.2h6.78c2.88,0,5.22,2.34,5.22,5.22v51.23Z"/>
  <path class="cls-2" d="m383.67,264.61c0-6.63-5.37-12-12-12s-12,5.37-12,12c0,55.48-45.14,100.63-100.63,100.63-7.49,0-14.8-.83-21.83-2.39-9.83,3.95-23.35,8.04-40.07,9.9,18.25,10.48,39.38,16.49,61.9,16.49,68.72,0,124.63-55.91,124.63-124.63Z"/>
</svg>