<?xml version="1.0" encoding="UTF-8"?>
<svg id="Layer_1" data-name="Layer 1" xmlns="http://www.w3.org/2000/svg" xmlns:xlink="http://www.w3.org/1999/xlink" viewBox="0 0 25 24">
  <defs>
    <style>
      .cls-1 {
        fill: none;
      }

      .cls-1, .cls-2 {
        stroke-width: 0px;
      }

      .cls-2 {
        fill: #fff;
      }

      .cls-3 {
        clip-path: url(#clippath);
      }
    </style>
    <clipPath id="clippath">
      <rect class="cls-1" x=".5" width="24" height="24"/>
    </clipPath>
  </defs>
  <g class="cls-3">
    <g>
      <path class="cls-2" d="m19.08,2.14L12.82.05c-.21-.07-.43-.07-.63,0l-6.26,2.09c-1,.33-1.86.97-2.48,1.82-.61.85-.94,1.87-.94,2.92v5.12c0,7.56,9.2,11.74,9.59,11.91.13.06.27.09.41.09s.28-.03.41-.09c.39-.17,9.59-4.35,9.59-11.91v-5.12c0-1.05-.33-2.07-.94-2.92-.61-.85-1.48-1.49-2.48-1.82Zm1.42,9.86c0,5.45-6.32,9.03-8,9.89-1.68-.85-8-4.42-8-9.89v-5.12c0-.63.2-1.24.57-1.75.37-.51.89-.89,1.49-1.09l5.95-1.98,5.95,1.98c.6.2,1.12.58,1.49,1.09.37.51.57,1.12.57,1.75v5.12Z"/>
      <path class="cls-2" d="m15.8,8.3l-4.19,4.2-2.24-2.34c-.09-.1-.2-.18-.32-.23-.12-.06-.25-.09-.39-.09-.13,0-.27.02-.39.07-.12.05-.24.12-.33.21-.1.09-.17.2-.23.33-.05.12-.08.25-.08.39,0,.13.02.27.08.39.05.12.13.24.22.33l2.31,2.4c.17.19.38.33.61.44.23.1.48.16.73.16h.03c.25,0,.49-.05.72-.14.23-.09.44-.23.61-.41l4.27-4.27c.09-.09.17-.2.22-.33.05-.12.08-.25.08-.38,0-.13-.03-.26-.08-.38-.05-.12-.12-.23-.22-.33-.09-.09-.2-.17-.33-.22-.12-.05-.25-.08-.38-.08-.13,0-.26.03-.38.08-.12.05-.23.12-.33.22Z"/>
    </g>
  </g>
</svg>